Motion_pl01
version=1
nRows=15
nColumns=43
inDegrees=yes
endheader
time	pelvis_tilt	pelvis_list	pelvis_rotation	pelvis_tx	pelvis_ty	pelvis_tz	hip_flexion_r	hip_adduction_r	hip_rotation_r	knee_angle_r	ankle_angle_r	subtalar_angle_r	mtp_angle_r	hip_flexion_l	hip_adduction_l	hip_rotation_l	knee_angle_l	ankle_angle_l	subtalar_angle_l	mtp_angle_l	lumbar_extension	lumbar_bending	lumbar_rotation	neck_flexion	neck_lateral_bending	neck_rotation	arm_flex_r	arm_add_r	arm_rot_r	elbow_flex_r	pro_sup_r	wrist_flex_r	wrist_dev_r	hand_finger_flex_r	arm_flex_l	arm_add_l	arm_rot_l	elbow_flex_l	pro_sup_l	wrist_flex_l	wrist_dev_l	hand_finger_flex_l
      1.50000000	     -0.64281878	    -11.52753607	     94.50899932	     -0.04204208	      0.68509393	      0.41732464	     71.02917493	    -10.62227891	     -1.97319579	    -96.49735896	      7.14623280	      7.16493519	     36.30831568	     68.69514108	     -6.46734786	     -7.62152189	    -95.70804049	     12.59010167	      3.85713810	     38.44567177	    -65.03064786	      1.88427067	      1.03556555	     18.82957236	      1.83623977	     -8.02239045	     79.33205002	    -28.81856593	     28.37011104	     57.20827657	    103.11182279	    -31.77232641	     -7.87287518	     23.68742025	     84.53323349	    -21.75977463	     34.53737639	     59.33205019	    133.78855726	    -12.89932651	     11.26556654	     62.83655513
      1.50250000	     -0.67767316	    -11.40675525	     94.51928526	     -0.04207653	      0.68641847	      0.41678732	     70.73067919	    -10.66340649	     -2.04923115	    -96.30165702	      7.03686031	      6.94643261	     36.41349401	     68.37884024	     -6.44131076	     -7.67816176	    -95.49242768	     12.54566544	      3.81654003	     38.54201957	    -65.05501116	      1.88365242	      1.01786342	     18.57557247	      1.87640625	     -8.03827359	     78.87603306	    -28.93693964	     28.11710740	     57.20536914	    103.16487181	    -31.88755139	     -7.97334677	     23.74952471	     83.90875698	    -21.66894282	     33.74508402	     59.22278860	    133.77038917	    -13.04300697	     11.29926962	     62.87142945
      1.50500000	     -0.67965064	    -11.42430391	     94.51253005	     -0.04197470	      0.68739122	      0.41647476	     70.62035577	    -10.64077064	     -2.08310844	    -96.13343440	      7.01331549	      6.93560592	     36.41920674	     68.25947837	     -6.42842339	     -7.66901671	    -95.31800249	     12.52077342	      3.81596028	     38.54639617	    -64.94094064	      1.87193919	      0.99660338	     18.63125456	      1.87168880	     -8.04308999	     78.57916510	    -29.06560162	     28.15914313	     57.09922667	    103.17050874	    -31.87458688	     -7.95714214	     23.76568787	     83.58728561	    -21.84237368	     33.74204086	     59.05950841	    133.77871445	    -13.02176939	     11.32283901	     62.88333838
      1.50750000	     -0.69172532	    -11.30674594	     94.52086913	     -0.04199363	      0.68875080	      0.41596338	     70.30974389	    -10.65772114	     -2.17951884	    -95.91801677	      6.93555884	      6.69224468	     36.51586970	     67.94731898	     -6.41349737	     -7.70765407	    -95.09654452	     12.49096919	      3.78059643	     38.63420670	    -64.96353794	      1.88445910	      0.98479788	     18.37568772	      1.88276932	     -8.02796237	     78.15671900	    -29.16280352	     27.94137676	     57.07185955	    103.23420484	    -31.91726718	     -8.05041027	     23.81853825	     82.94883772	    -21.76161871	     32.91000008	     58.95755596	    133.76732927	    -13.18312148	     11.36847264	     62.90243098
      1.51000000	     -0.69193614	    -11.32268169	     94.51600425	     -0.04187552	      0.68972306	      0.41565602	     70.19634549	    -10.63094514	     -2.20907443	    -95.74775838	      6.91293158	      6.68201632	     36.52036733	     67.82627480	     -6.40334755	     -7.69142892	    -94.92128407	     12.46704502	      3.77990582	     38.63748918	    -64.84775779	      1.87376568	      0.95972591	     18.43482767	      1.87550181	     -8.03031175	     77.85528906	    -29.28769828	     27.99016577	     56.96416058	    103.24218421	    -31.89732329	     -8.03272832	     23.83356422	     82.62215586	    -21.93644458	     32.90485059	     58.78893834	    133.77615911	    -13.16261241	     11.39406204	     62.91342380
      1.51250000	     -0.69306483	    -11.18781399	     94.51773427	     -0.04192495	      0.69113766	      0.41513835	     69.85656369	    -10.63439389	     -2.29777337	    -95.51574078	      6.85647776	      6.45182263	     36.60687860	     67.48551565	     -6.39693211	     -7.72949159	    -94.68698054	     12.45071597	      3.74388788	     38.71508143	    -64.88716850	      1.89918800	      0.95452715	     18.16741475	      1.86361451	     -7.97565448	     77.46663963	    -29.38438957	     27.81118396	     56.91735153	    103.34265679	    -31.87162940	     -8.10320864	     23.87308784	     81.95495639	    -21.85356878	     32.03365086	     58.68701462	    133.75805319	    -13.34808979	     11.45640442	     62.92465632
      1.51500000	     -0.69050166	    -11.20493179	     94.51285925	     -0.04177643	      0.69211735	      0.41481098	     69.73815569	    -10.60189639	     -2.32817841	    -95.34793193	      6.83402041	      6.44660094	     36.61000368	     67.36298331	     -6.38505812	     -7.70564078	    -94.51251601	     12.42843784	      3.74211940	     38.71694865	    -64.76991296	      1.88119759	      0.91916696	     18.23415842	      1.85257192	     -7.97706380	     77.15616079	    -29.50658280	     27.86967389	     56.80876217	    103.35443834	    -31.84622806	     -8.08320672	     23.88688839	     81.63059738	    -22.03322616	     32.02669011	     58.50863077	    133.76732387	    -13.32882804	     11.48452538	     62.93462709
      1.51750000	     -0.69576547	    -11.04312058	     94.50567965	     -0.04181897	      0.69361348	      0.41429546	     69.35683863	    -10.60174062	     -2.40791256	    -95.10727583	      6.78878478	      6.25984826	     36.69435089	     66.98055706	     -6.38029962	     -7.74415006	    -94.26547854	     12.43879717	      3.68896995	     38.78884084	    -64.84230537	      1.90448169	      0.91109620	     17.98141182	      1.82225315	     -7.89646128	     76.79460477	    -29.60385349	     27.72755978	     56.75353705	    103.51945137	    -31.77839912	     -8.13389090	     23.91213455	     80.95113112	    -21.92892570	     31.08733042	     58.38679419	    133.75442069	    -13.55191868	     11.56394153	     62.93972506
      1.52000000	     -0.68941452	    -11.05685236	     94.50220141	     -0.04167813	      0.69457025	      0.41400514	     69.24110714	    -10.56650121	     -2.43100003	    -94.94344321	      6.76736438	      6.25970810	     36.69645723	     66.85448271	     -6.36555574	     -7.72330897	    -94.08985853	     12.41628631	      3.68695006	     38.78927777	    -64.72662195	      1.89136953	      0.88085992	     18.05013534	      1.81383188	     -7.89807393	     76.48188393	    -29.72801184	     27.78848654	     56.64184567	    103.53386633	    -31.75315408	     -8.11123965	     23.92410239	     80.61818665	    -22.10836115	     31.08737257	     58.20843271	    133.76425631	    -13.53233906	     11.59254066	     62.94991145
      1.52250000	     -0.69958345	    -10.87596684	     94.49543141	     -0.04171357	      0.69610698	      0.41343882	     68.83143955	    -10.56724746	     -2.50311138	    -94.70130579	      6.73447014	      6.14704678	     36.77514039	     66.43622780	     -6.35455843	     -7.76635659	    -93.83465049	     12.45079904	      3.61395856	     38.84968742	    -64.82089704	      1.90965251	      0.87291179	     17.80791952	      1.79945713	     -7.82120455	     76.10858643	    -29.83906398	     27.66587220	     56.59258587	    103.74156814	    -31.70941200	     -8.14078199	     23.92912027	     79.93689776	    -21.99488040	     30.14515071	     58.08880751	    133.76220909	    -13.77624784	     11.68044371	     62.95054678
      1.52500000	     -0.69212511	    -10.88774264	     94.48998259	     -0.04161126	      0.69704533	      0.41314470	     68.71154582	    -10.53615828	     -2.51800521	    -94.54152266	      6.71473017	      6.15010476	     36.77660808	     66.30766691	     -6.33972767	     -7.74699727	    -93.65558621	     12.42854601	      3.61146494	     38.84901051	    -64.70329786	      1.90112040	      0.85190640	     17.88168695	      1.79378724	     -7.82331737	     75.78960242	    -29.96388905	     27.72642866	     56.47408725	    103.75624513	    -31.68770512	     -8.11518172	     23.93965939	     79.58958911	    -22.17076879	     30.14913009	     57.90913473	    133.77210252	    -13.75613687	     11.70990367	     62.96104664
      1.52750000	     -0.69922666	    -10.69036383	     94.48503274	     -0.04168858	      0.69859291	      0.41253885	     68.27672868	    -10.54340611	     -2.58499553	    -94.29925833	      6.71189036	      6.10284979	     36.84909338	     65.86465067	     -6.32777593	     -7.79346867	    -93.39669334	     12.49271400	      3.52318718	     38.89766570	    -64.81386348	      1.92207286	      0.85777918	     17.65435777	      1.81098303	     -7.76431924	     75.38845781	    -30.07206096	     27.57751440	     56.42706677	    103.95692172	    -31.71910310	     -8.12761255	     23.92599613	     78.88972452	    -22.03829796	     29.20376855	     57.80202390	    133.76713265	    -14.00240802	     11.80527913	     62.96023394
      1.53000000	     -0.69242058	    -10.70264046	     94.48285401	     -0.04155989	      0.69953041	      0.41224099	     68.15222506	    -10.51183311	     -2.60048098	    -94.13909083	      6.69394634	      6.10971706	     36.85020612	     65.73456496	     -6.31404097	     -7.77474486	    -93.21500528	     12.47133358	      3.52028808	     38.89617583	    -64.69727520	      1.91143620	      0.83840652	     17.73412366	      1.80355610	     -7.76674178	     75.05189482	    -30.19399557	     27.64234010	     56.30071177	    103.97036771	    -31.69989732	     -8.09988228	     23.93663771	     78.53646490	    -22.20827647	     29.20622710	     57.62235679	    133.77686387	    -13.98155270	     11.83551979	     62.97110459
      1.53250000	     -0.68980254	    -10.49069817	     94.47748606	     -0.04164361	      0.70110793	      0.41158757	     67.68835294	    -10.51713247	     -2.67455940	    -93.88894507	      6.73445449	      6.12142808	     36.92075390	     65.27113166	     -6.31206991	     -7.82030000	    -92.95287557	     12.56374809	      3.42603541	     38.93615267	    -64.82493673	      1.93288428	      0.85507453	     17.53873030	      1.83456971	     -7.72306595	     74.62586514	    -30.27718239	     27.45488361	     56.24995854	    104.13896457	    -31.79368518	     -8.10646767	     23.91630927	     77.82360767	    -22.06594068	     28.23661048	     57.52932921	    133.76247028	    -14.21024450	     11.93668783	     62.97581284
      1.53500000	     -0.68233877	    -10.50303490	     94.47691532	     -0.04152490	      0.70205147	      0.41126985	     67.55422150	    -10.48602214	     -2.68883516	    -93.71888565	      6.71815078	      6.13189318	     36.92163550	     65.13818342	     -6.30034412	     -7.80561428	    -92.76550730	     12.54233159	      3.42377596	     38.93398033	    -64.70415048	      1.92354851	      0.83683184	     17.62297241	      1.82598230	     -7.72520034	     74.27382223	    -30.39766394	     27.52301161	     56.11736983	    104.15098550	    -31.77490024	     -8.07783388	     23.92807975	     77.45577003	    -22.23354146	     28.23846297	     57.34740238	    133.77213175	    -14.18647556	     11.96789514	     62.98778763
